<svg xmlns="http://www.w3.org/2000/svg" viewBox="0 0 64 64" width="64" height="64">
  <!-- Plate background -->
  <circle cx="32" cy="32" r="26" fill="#FFF3E0"/>
  <circle cx="32" cy="32" r="20" fill="#FFE0B2"/>
  <circle cx="32" cy="32" r="16" fill="#FFFFFF"/>
  
  <!-- Fork (Left) -->
  <path d="M20 18v10m-3-10v5a3 3 0 0 0 3 3m3-8v5a3 3 0 0 1-3 3m0 0v12" stroke="#FF9100" stroke-width="2" stroke-linecap="round"/>
  
  <!-- Spoon (Right) -->
  <path d="M44 24c0-4.5-3.5-6-5-6s-5 1.5-5 6c0 3 3.5 6 5 6s5-3 5-6zm-5 6v12" fill="#FF9100" stroke="#FF9100" stroke-width="2" stroke-linecap="round"/>
</svg>
