<svg xmlns="http://www.w3.org/2000/svg" viewBox="0 0 64 64" width="64" height="64">
  <!-- Gas Pump Body -->
  <rect x="14" y="8" width="26" height="48" rx="4" fill="#FBE9E7"/>
  <rect x="14" y="8" width="26" height="15" rx="4" fill="#DD2C00"/>
  <rect x="14" y="50" width="26" height="6" rx="1" fill="#546E7A"/>
  
  <!-- Gauge Screen -->
  <rect x="18" y="13" width="18" height="8" rx="1" fill="#FFFFFF"/>
  <line x1="21" y1="17" x2="29" y2="17" stroke="#37474F" stroke-width="1.5"/>
  <circle cx="32" cy="17" r="1.5" fill="#FFEB3B"/>
  
  <!-- Price Label -->
  <rect x="20" y="27" width="14" height="6" rx="1" fill="#FFCCBC"/>
  <line x1="22" y1="30" x2="32" y2="30" stroke="#37474F" stroke-width="1"/>
  
  <!-- Hose & Nozzle -->
  <path d="M40 32h5c1.7 0 3 1.3 3 3v12c0 1.7-1.3 3-3 3h-3" fill="none" stroke="#37474F" stroke-width="3.5" stroke-linecap="round"/>
  <path d="M40 22v10" stroke="#37474F" stroke-width="4" stroke-linecap="round"/>
  <rect x="42" y="18" width="4" height="6" rx="1" fill="#DD2C00"/>
  <path d="M42 20l-4-4" stroke="#DD2C00" stroke-width="2" stroke-linecap="round"/>
</svg>
