<svg xmlns="http://www.w3.org/2000/svg" viewBox="0 0 64 64" width="64" height="64">
  <!-- Building Body -->
  <rect x="10" y="18" width="44" height="42" rx="4" fill="#E3F2FD"/>
  <rect x="8" y="10" width="48" height="8" rx="2" fill="#0D47A1"/>
  
  <!-- Windows -->
  <rect x="14" y="24" width="8" height="8" rx="1" fill="#90CAF9"/>
  <rect x="42" y="24" width="8" height="8" rx="1" fill="#90CAF9"/>
  <rect x="14" y="36" width="8" height="8" rx="1" fill="#90CAF9"/>
  <rect x="42" y="36" width="8" height="8" rx="1" fill="#90CAF9"/>
  
  <!-- Door -->
  <rect x="26" y="44" width="12" height="16" rx="1" fill="#0D47A1"/>

  <!-- Golden Police Star/Shield Badge -->
  <polygon points="32,22 35,28 41,29 37,33 38,39 32,36 26,39 27,33 23,29 29,28" fill="#FFD54F"/>
  <circle cx="32" cy="31" r="2.5" fill="#0D47A1"/>

  <!-- "POLICE" Text on Signboard -->
  <rect x="16" y="11" width="32" height="6" rx="1" fill="#FF1744"/>
  <path d="M19 15.5v-3h1.2c.4 0 .7.1.9.3s.3.4.3.7c0 .3-.1.5-.3.7s-.5.3-.9.3H20v1h-1zm1-1.8h.2c.2 0 .3 0 .4-.1s.1-.2.1-.3c0-.1 0-.2-.1-.3s-.2-.1-.4-.1H20v.8zm4.2 1.8c-.8 0-1.3-.5-1.3-1.5s.5-1.5 1.3-1.5 1.3.5 1.3 1.5-.5 1.5-1.3 1.5zm0-.6c.4 0 .7-.3.7-.9s-.3-.9-.7-.9-.7.3-.7.9.3.9.7.9zm3.5.6v-3h1v3zm3.7 0c-.8 0-1.3-.5-1.3-1.5s.5-1.5 1.3-1.5.8.3 1.1.8l-.8.5c-.1-.3-.2-.4-.3-.4c-.4 0-.6.3-.6.6s.2.6.6.6c.2 0 .3-.1.4-.4l.8.3c-.2.7-.6 1.1-1.2 1.1zm3.8 0v-3h2.3v.6h-1.6v.6h1.4v.6h-1.4v.6h1.7v.6z" fill="#FFFFFF"/>
</svg>
