<svg xmlns="http://www.w3.org/2000/svg" viewBox="0 0 64 64" width="64" height="64">
  <!-- Station Canopy / Arch -->
  <path d="M8 56V26C8 16 16 8 26 8h12c10 0 18 8 18 18v30" fill="none" stroke="#CFD8DC" stroke-width="3"/>
  <rect x="4" y="52" width="56" height="4" rx="2" fill="#90A4AE"/>
  
  <!-- Tracks -->
  <line x1="22" y1="56" x2="16" y2="62" stroke="#37474F" stroke-width="3" stroke-linecap="round"/>
  <line x1="42" y1="56" x2="48" y2="62" stroke="#37474F" stroke-width="3" stroke-linecap="round"/>
  <line x1="18" y1="60" x2="46" y2="60" stroke="#37474F" stroke-width="2"/>

  <!-- Train (Front View) -->
  <rect x="18" y="20" width="28" height="32" rx="6" fill="#8D6E63"/>
  <rect x="18" y="44" width="28" height="8" rx="2" fill="#5D4037"/>
  
  <!-- Windshield -->
  <rect x="22" y="25" width="20" height="11" rx="2" fill="#E0F2F1"/>
  
  <!-- Lights -->
  <circle cx="23" cy="44" r="2.5" fill="#FFEB3B"/>
  <circle cx="41" cy="44" r="2.5" fill="#FFEB3B"/>
  <circle cx="32" cy="22" r="1.5" fill="#FFFF00"/>
</svg>
