<svg xmlns="http://www.w3.org/2000/svg" viewBox="0 0 64 64" width="64" height="64">
  <!-- ATM Machine Body -->
  <rect x="12" y="6" width="40" height="52" rx="4" fill="#E3F2FD"/>
  <rect x="12" y="6" width="40" height="26" rx="4" fill="#1E88E5"/>
  
  <!-- Screen -->
  <rect x="18" y="11" width="28" height="15" rx="1" fill="#FFFFFF"/>
  
  <!-- "ATM" Text -->
  <path d="M22 22l2-6h1.5l2 6h-1.2l-.5-1.5h-2.1l-.5 1.5zm1.2-2.3h1.6l-.8-2.5zm5.3.3h-1.5v-3.4h-1.5v-1h4.5v1h-1.5zm4 2l2.3-6H36v6h-1.1v-4.5l-2.1 4.5h-.7L30 19.8V22h-1.1v-6h1.2l2 4.3 2-4.3h1.2v6z" fill="#1E88E5"/>
  
  <!-- Keypad Area -->
  <rect x="18" y="36" width="28" height="10" rx="1" fill="#BBDEFB"/>
  <rect x="20" y="38" width="4" height="2" fill="#90CAF9"/>
  <rect x="26" y="38" width="4" height="2" fill="#90CAF9"/>
  <rect x="32" y="38" width="4" height="2" fill="#90CAF9"/>
  <rect x="38" y="38" width="6" height="2" fill="#4CAF50"/>
  
  <rect x="20" y="42" width="4" height="2" fill="#90CAF9"/>
  <rect x="26" y="42" width="4" height="2" fill="#90CAF9"/>
  <rect x="32" y="42" width="4" height="2" fill="#90CAF9"/>
  <rect x="38" y="42" width="6" height="2" fill="#F44336"/>

  <!-- Cash Slot & Cash -->
  <rect x="18" y="49" width="28" height="4" rx="1" fill="#37474F"/>
  <rect x="22" y="51" width="20" height="5" fill="#4CAF50"/>
  <line x1="25" y1="53" x2="39" y2="53" stroke="#81C784" stroke-width="1"/>
</svg>
