<svg xmlns="http://www.w3.org/2000/svg" viewBox="0 0 64 64" width="64" height="64">
  <!-- Building Body -->
  <rect x="14" y="16" width="36" height="44" rx="4" fill="#E8EAF6"/>
  <rect x="16" y="8" width="32" height="8" rx="2" fill="#3F51B5"/>
  
  <!-- Windows -->
  <rect x="20" y="22" width="6" height="6" rx="1" fill="#9FA8DA"/>
  <rect x="38" y="22" width="6" height="6" rx="1" fill="#9FA8DA"/>
  <rect x="20" y="32" width="6" height="6" rx="1" fill="#9FA8DA"/>
  <rect x="38" y="32" width="6" height="6" rx="1" fill="#9FA8DA"/>
  
  <!-- Glowing Window -->
  <rect x="29" y="22" width="6" height="6" rx="1" fill="#FFF59D"/>
  <rect x="29" y="32" width="6" height="6" rx="1" fill="#FFF59D"/>

  <!-- Door & Canopy -->
  <rect x="26" y="46" width="12" height="14" fill="#1A237E"/>
  <path d="M24 46h16l-3-4H27z" fill="#FF1744"/>

  <!-- "HOTEL" Text on Signboard -->
  <rect x="18" y="9" width="28" height="6" rx="1" fill="#FF1744"/>
  <path d="M22 13.5v-3h.7v1.1h1.3v-1.1h.7v3h-.7v-1.2h-1.3v1.2zm5.2 0c-.8 0-1.3-.5-1.3-1.5s.5-1.5 1.3-1.5 1.3.5 1.3 1.5-.5 1.5-1.3 1.5zm0-.6c.4 0 .7-.3.7-.9s-.3-.9-.7-.9-.7.3-.7.9.3.9.7.9zm3.5.6v-2.4h-1v-.6h2.7v.6h-1v2.4zm2.7 0v-3h2.3v.6h-1.6v.6h1.4v.6h-1.4v.6h1.7v.6zm3.3 0v-3h.7v2.4h1.6v.6z" fill="#FFFFFF"/>
</svg>
