<svg xmlns="http://www.w3.org/2000/svg" viewBox="0 0 64 64" width="64" height="64">
  <!-- Wheels -->
  <rect x="16" y="14" width="4" height="10" rx="2" fill="#1E293B"/>
  <rect x="44" y="14" width="4" height="10" rx="2" fill="#1E293B"/>
  <rect x="16" y="42" width="4" height="10" rx="2" fill="#1E293B"/>
  <rect x="44" y="42" width="4" height="10" rx="2" fill="#1E293B"/>
  <!-- Side Mirrors -->
  <path d="M16 22 C14 22 14 25 17 25" fill="#MAIN_COLOR" stroke="#0F172A" stroke-width="1.5"/>
  <path d="M48 22 C50 22 50 25 47 25" fill="#MAIN_COLOR" stroke="#0F172A" stroke-width="1.5"/>
  <!-- Body -->
  <path d="M22 8 C22 8 32 6 42 8 C44 14 46 22 46 32 C46 42 44 50 42 56 C32 58 22 58 22 56 C20 50 18 42 18 32 C18 22 20 14 22 8 Z" fill="#MAIN_COLOR" stroke="#0F172A" stroke-width="2"/>
  <!-- Hood lines -->
  <path d="M24 16 L40 16" stroke="#0F172A" stroke-width="1.5" stroke-linecap="round" fill="none" opacity="0.3"/>
  <!-- Windshield -->
  <path d="M23 24 C23 20 41 20 41 24 C40 25 24 25 23 24 Z" fill="#38BDF8" stroke="#0F172A" stroke-width="1.5"/>
  <!-- Roof -->
  <path d="M24 25 H40 V42 H24 Z" fill="#MAIN_COLOR" stroke="#0F172A" stroke-width="1.5"/>
  <!-- Rear Window -->
  <path d="M23 43 C23 46 41 46 41 43 C40 42 24 42 23 43 Z" fill="#38BDF8" stroke="#0F172A" stroke-width="1.5"/>
  <!-- Headlights -->
  <ellipse cx="23" cy="9" rx="2" ry="1" fill="#FDE047"/>
  <ellipse cx="41" cy="9" rx="2" ry="1" fill="#FDE047"/>
  <!-- Tail lights -->
  <rect x="23" y="55" width="4" height="1.5" rx="0.5" fill="#EF4444"/>
  <rect x="37" y="55" width="4" height="1.5" rx="0.5" fill="#EF4444"/>
</svg>
