<svg xmlns="http://www.w3.org/2000/svg" viewBox="0 0 64 64" width="64" height="64">
  <!-- Handlebars -->
  <line x1="20" y1="22" x2="44" y2="22" stroke="#1E293B" stroke-width="4.5" stroke-linecap="round"/>
  <!-- Mirrors -->
  <circle cx="18" cy="19" r="2" fill="#475569" stroke="#0F172A" stroke-width="1"/>
  <circle cx="46" cy="19" r="2" fill="#475569" stroke="#0F172A" stroke-width="1"/>
  <!-- Main Body -->
  <path d="M25 14 C25 14 32 10 39 14 C40 22 41 38 38 48 C36 52 28 52 26 48 C23 38 24 22 25 14 Z" fill="#MAIN_COLOR" stroke="#0F172A" stroke-width="2"/>
  <!-- Front mudguard -->
  <rect x="29" y="8" width="6" height="10" rx="2" fill="#MAIN_COLOR" stroke="#0F172A" stroke-width="1"/>
  <!-- Seat (Brown/Leather look) -->
  <path d="M28 28 C28 26 36 26 36 28 L35 44 C35 46 29 46 29 44 Z" fill="#8B4513" stroke="#0F172A" stroke-width="1"/>
  <!-- Backrest/Carrier box at rear -->
  <rect x="28" y="46" width="8" height="6" rx="1.5" fill="#1E293B" stroke="#0F172A" stroke-width="1.5"/>
</svg>
