<svg xmlns="http://www.w3.org/2000/svg" viewBox="0 0 64 64" width="64" height="64">
  <!-- Wheels -->
  <rect x="15" y="15" width="5" height="11" rx="2" fill="#0F172A"/>
  <rect x="44" y="15" width="5" height="11" rx="2" fill="#0F172A"/>
  <rect x="14" y="41" width="6" height="12" rx="2.5" fill="#0F172A"/>
  <rect x="44" y="41" width="6" height="12" rx="2.5" fill="#0F172A"/>
  <!-- Body -->
  <path d="M22 6 C24 5 40 5 42 6 C44 12 47 22 47 32 C47 40 45 48 43 54 C43 57 21 57 21 54 C19 48 17 40 17 32 C17 22 20 12 22 6 Z" fill="#MAIN_COLOR" stroke="#0F172A" stroke-width="2"/>
  <!-- Aggressive Hood Intake lines -->
  <path d="M26 14 L30 18 M38 14 L34 18" stroke="#0F172A" stroke-width="1.5" fill="none" opacity="0.4"/>
  <!-- Windshield -->
  <path d="M22 23 C22 17 42 17 42 23 C41 25 23 25 22 23 Z" fill="#0284C7" stroke="#0F172A" stroke-width="1.5"/>
  <!-- Roof / Cabin -->
  <path d="M23 25 H41 L39 42 H25 Z" fill="#MAIN_COLOR" stroke="#0F172A" stroke-width="1.5"/>
  <!-- Rear Window -->
  <path d="M24 42 L40 42 L38 47 L26 47 Z" fill="#0284C7" stroke="#0F172A" stroke-width="1.5"/>
  <!-- Spoiler -->
  <rect x="18" y="52" width="28" height="3" rx="1.5" fill="#0F172A" stroke="#0F172A" stroke-width="1"/>
  <!-- Headlights -->
  <path d="M21 8 C21 8 23 6 25 8 Z" fill="#F59E0B"/>
  <path d="M43 8 C43 8 41 6 39 8 Z" fill="#F59E0B"/>
</svg>
