<svg xmlns="http://www.w3.org/2000/svg" viewBox="0 0 64 64" width="64" height="64">
  <!-- Wheels -->
  <rect x="16" y="14" width="4" height="10" rx="2" fill="#1E293B"/>
  <rect x="44" y="14" width="4" height="10" rx="2" fill="#1E293B"/>
  <rect x="16" y="42" width="4" height="10" rx="2" fill="#1E293B"/>
  <rect x="44" y="42" width="4" height="10" rx="2" fill="#1E293B"/>
  <!-- Body -->
  <path d="M22 8 C22 8 32 6 42 8 C44 14 46 22 46 32 C46 42 44 50 42 56 C32 58 22 58 22 56 C20 50 18 42 18 32 C18 22 20 14 22 8 Z" fill="#MAIN_COLOR" stroke="#0F172A" stroke-width="2"/>
  <!-- White center accent -->
  <path d="M24 22 C24 22 32 21 40 22 L38 44 C38 44 32 45 26 44 Z" fill="#FFFFFF" stroke="#0F172A" stroke-width="1"/>
  <!-- Windshield -->
  <path d="M25 24 C25 21 39 21 39 24 Z" fill="#1E293B" stroke="#0F172A" stroke-width="1.5"/>
  <!-- Rear Window -->
  <path d="M25 43 C25 45 39 45 39 43 Z" fill="#1E293B" stroke="#0F172A" stroke-width="1.5"/>
  <!-- Emergency Light Bar -->
  <rect x="25" y="30" width="14" height="4" rx="1" fill="#1E293B"/>
  <rect x="25" y="30" width="7" height="4" rx="1" fill="#3B82F6"/>
  <rect x="32" y="30" width="7" height="4" rx="1" fill="#EF4444"/>
  <!-- Headlights -->
  <ellipse cx="23" cy="9" rx="2" ry="1" fill="#FFF"/>
  <ellipse cx="41" cy="9" rx="2" ry="1" fill="#FFF"/>
</svg>
