<svg xmlns="http://www.w3.org/2000/svg" viewBox="0 0 64 64" width="64" height="64">
  <!-- Dynamic vehicle: Speedboat -->
  <!-- Shadow under the boat -->
  <path d="M32 4 C32 4 47 17 47 38 C47 48 43 59 39 59 L25 59 C21 59 17 48 17 38 C17 17 32 4 32 4 Z" fill="black" fill-opacity="0.15" />

  <!-- Hull (Uses #MAIN_COLOR) -->
  <path d="M32 3 C32 3 46 16 46 38 C46 48 42 58 38 58 L26 58 C22 58 18 48 18 38 C18 16 32 3 32 3 Z" fill="#MAIN_COLOR" />

  <!-- Shading on the Left side of the Hull -->
  <path d="M32 3 C32 3 18 16 18 38 C18 48 22 58 26 58 L32 58 Z" fill="black" fill-opacity="0.1" />

  <!-- Highlight on the Right side of the Hull -->
  <path d="M32 3 H32 C32 3 46 16 46 38 C46 48 42 58 38 58 L32 58 Z" fill="white" fill-opacity="0.08" />

  <!-- White Deck Overlay (Center deck) -->
  <path d="M32 10 C32 10 40 18 40 36 C40 45 37 54 35 54 H29 C27 54 24 45 24 36 C24 18 32 10 32 10 Z" fill="#FFFFFF" />
  <!-- Shadow on left side of white deck -->
  <path d="M32 10 C32 10 24 18 24 36 C24 45 27 54 29 54 H32 Z" fill="black" fill-opacity="0.05" />

  <!-- Windshield -->
  <path d="M25 24 C25 24 32 20 39 24 C38 27 26 27 25 24 Z" fill="#0F172A" />
  <path d="M25.5 23.5 C25.5 23.5 32 19.5 38.5 23.5 C37.5 26.5 26.5 26.5 25.5 23.5 Z" fill="#38BDF8" />
  <path d="M34 21 L30 25 H28 L32 21 Z" fill="white" fill-opacity="0.4" />

  <!-- Outboard Engine -->
  <rect x="29" y="58" width="6" height="3.5" rx="1" fill="#1E293B" />
</svg>
