<svg xmlns="http://www.w3.org/2000/svg" viewBox="0 0 64 64" width="64" height="64">
  <!-- Handlebars -->
  <line x1="20" y1="20" x2="44" y2="20" stroke="#1E293B" stroke-width="4" stroke-linecap="round"/>
  <circle cx="20" cy="20" r="2.5" fill="#0F172A"/>
  <circle cx="44" cy="20" r="2.5" fill="#0F172A"/>
  <!-- Front Wheel -->
  <rect x="30" y="8" width="4" height="12" rx="2" fill="#0F172A"/>
  <line x1="32" y1="18" x2="32" y2="23" stroke="#475569" stroke-width="2.5"/>
  <!-- Main Frame -->
  <path d="M26 23 C26 23 32 20 38 23 C38 32 37 44 35 48 C32 50 32 50 29 48 C27 44 26 32 26 23 Z" fill="#MAIN_COLOR" stroke="#0F172A" stroke-width="2"/>
  <!-- Engine Block / Tank details -->
  <rect x="29" y="24" width="6" height="10" rx="1" fill="#475569"/>
  <!-- Seat -->
  <path d="M28 34 C28 34 32 33 36 34 L35 44 L29 44 Z" fill="#1E293B" stroke="#0F172A" stroke-width="1"/>
  <!-- Rear Wheel -->
  <rect x="30" y="45" width="4" height="13" rx="2" fill="#0F172A"/>
  <!-- Exhaust pipe -->
  <line x1="36" y1="38" x2="36" y2="52" stroke="#94A3B8" stroke-width="2" stroke-linecap="round"/>
</svg>
