<svg xmlns="http://www.w3.org/2000/svg" viewBox="0 0 64 64" width="64" height="64" fill="none" stroke="#FFFFFF" stroke-width="4.5" stroke-linecap="round" stroke-linejoin="round">
  <!-- Sleek White Side-Profile Car for Bottom Action Button -->
  <!-- Upper cabin curve -->
  <path d="M12 34 C12 34 16 22 26 22 H40 C40 22 47 27 50 34 H54 C56 34 57 36 55 38 H9 C7 38 8 34 12 34 Z" fill="#FFFFFF" fill-opacity="0.15" />
  <!-- Side window divider -->
  <line x1="28" y1="22" x2="28" y2="34" stroke-width="3" />
  
  <!-- Lower body contours -->
  <path d="M6 34 C10 32 15 32 17 32 C19 40 25 40 27 32 H39 C41 40 47 40 49 32 C51 32 55 32 58 34 C60 36 60 40 57 40 H7 C4 40 4 36 6 34 Z" fill="#FFFFFF" />
  
  <!-- Hubcaps / Wheels outline -->
  <circle cx="22" cy="36" r="4.5" fill="#E2E8F0" stroke="#FFFFFF" stroke-width="3" />
  <circle cx="44" cy="36" r="4.5" fill="#E2E8F0" stroke="#FFFFFF" stroke-width="3" />
</svg>
