<svg xmlns="http://www.w3.org/2000/svg" viewBox="0 0 64 64" width="64" height="64">
  <!-- Wheels -->
  <rect x="15" y="10" width="4" height="9" rx="1" fill="#1E293B"/>
  <rect x="45" y="10" width="4" height="9" rx="1" fill="#1E293B"/>
  <rect x="14" y="34" width="5" height="10" rx="1" fill="#1E293B"/>
  <rect x="45" y="34" width="5" height="10" rx="1" fill="#1E293B"/>
  <rect x="14" y="46" width="5" height="10" rx="1" fill="#1E293B"/>
  <rect x="45" y="46" width="5" height="10" rx="1" fill="#1E293B"/>
  <!-- Cab (Front) -->
  <path d="M19 4 H45 L44 19 H20 Z" fill="#MAIN_COLOR" stroke="#0F172A" stroke-width="2"/>
  <!-- Windshield -->
  <path d="M21 9 H43 V7 H21 Z" fill="#38BDF8" stroke="#0F172A" stroke-width="1.5"/>
  <!-- Long Container (Rear) -->
  <rect x="17" y="20" width="30" height="40" rx="1" fill="#F1F5F9" stroke="#0F172A" stroke-width="2"/>
  <!-- Container grooves -->
  <line x1="21" y1="24" x2="43" y2="24" stroke="#CBD5E1" stroke-width="1.5"/>
  <line x1="21" y1="30" x2="43" y2="30" stroke="#CBD5E1" stroke-width="1.5"/>
  <line x1="21" y1="36" x2="43" y2="36" stroke="#CBD5E1" stroke-width="1.5"/>
  <line x1="21" y1="42" x2="43" y2="42" stroke="#CBD5E1" stroke-width="1.5"/>
  <line x1="21" y1="48" x2="43" y2="48" stroke="#CBD5E1" stroke-width="1.5"/>
  <line x1="21" y1="54" x2="43" y2="54" stroke="#CBD5E1" stroke-width="1.5"/>
</svg>
